<svg width="20.000000" height="25.000000" viewBox="0 0 20 25" fill="none" xmlns="http://www.w3.org/2000/svg" xmlns:xlink="http://www.w3.org/1999/xlink">
	<desc>
			Created with Pixso.
	</desc>
	<defs/>
	<path id="Vector" d="M7.25781 0.224731C7.50049 0.0826416 7.77686 0.00524902 8.05908 0.000244141C8.3418 -0.00476074 8.62061 0.0628052 8.86816 0.196106C16.1309 3.50336 20.2422 10.3713 19.9888 16.1143C19.8799 18.5269 19 20.7608 17.293 22.3912C15.5845 24.0234 13.1309 24.977 10.0249 24.9823C8.76953 25.0585 7.51172 24.8881 6.32422 24.4813C5.13721 24.0745 4.04492 23.4394 3.11133 22.6132C2.17773 21.787 1.42188 20.7865 0.888184 19.6702C0.354492 18.554 0.0532227 17.3444 0.00244141 16.1125L0.00244141 16.0982C-0.034668 14.6702 0.328125 13.2595 1.05078 12.0192C1.77393 10.7789 2.8291 9.75629 4.10303 9.06238C4.21338 9.00214 4.33594 8.96521 4.46191 8.95386C4.58789 8.94257 4.71484 8.95709 4.83496 8.99658C4.95508 9.03607 5.06494 9.09961 5.15869 9.18323C5.25195 9.26678 5.32666 9.36853 5.37793 9.48206C5.82129 10.4677 6.44287 11.3667 7.2124 12.1356C8.1123 10.9838 8.52734 9.49634 8.51465 7.8606C8.50049 5.91412 7.87744 3.82654 6.83154 2.04974C6.6499 1.75006 6.59326 1.39343 6.67236 1.05365C6.75195 0.713867 6.96143 0.417053 7.25781 0.224731Z" fill="#FFFFFF" fill-opacity="1.000000" fill-rule="evenodd"/>
</svg>
